<?xml version="1.0" standalone="no"?>
<!DOCTYPE svg PUBLIC "-//W3C//DTD SVG 20010904//EN"
 "http://www.w3.org/TR/2001/REC-SVG-20010904/DTD/svg10.dtd">
<svg version="1.0" xmlns="http://www.w3.org/2000/svg"
 width="500.000000pt" height="500.000000pt" viewBox="0 0 500.000000 500.000000"
 preserveAspectRatio="xMidYMid meet">
<metadata>
Created by potrace 1.11, written by Peter Selinger 2001-2013
</metadata>
<g transform="translate(0.000000,500.000000) scale(0.100000,-0.100000)"
fill="#000000" stroke="none">
<path d="M2125 3323 c-203 -117 -381 -219 -395 -226 -77 -42 -126 -71 -138
-81 -10 -10 -12 -125 -12 -541 l0 -530 22 -17 c13 -10 39 -26 58 -37 19 -10
53 -29 75 -41 22 -13 65 -37 95 -53 30 -17 87 -49 125 -72 39 -22 77 -44 85
-48 8 -4 31 -17 50 -28 28 -17 205 -120 390 -227 24 -13 30 -11 126 46 55 33
118 70 140 81 21 12 57 33 79 46 22 13 46 27 54 31 8 4 64 36 124 71 60 35
113 63 118 63 5 0 9 5 9 10 0 6 5 10 11 10 5 0 73 36 150 81 l139 81 0 532 -1
531 -32 21 c-18 12 -66 40 -107 64 -118 67 -137 78 -285 163 -77 44 -158 90
-180 102 -22 13 -78 45 -125 72 -47 27 -96 56 -110 64 -14 8 -32 19 -40 25
-38 28 -58 19 -425 -193z"/>
</g>
</svg>
